<?xml version="1.0" encoding="UTF-8" standalone="no"?>
<svg width="204px" height="165px" viewBox="0 0 204 165" version="1.1" xmlns="http://www.w3.org/2000/svg" xmlns:xlink="http://www.w3.org/1999/xlink">
    <!-- Generator: Sketch 45.2 (43514) - http://www.bohemiancoding.com/sketch -->
    <title>Group 2</title>
    <desc>Created with Sketch.</desc>
    <defs>
        <ellipse id="path-1" cx="38.8340426" cy="38.8983051" rx="38.8340426" ry="38.8983051"></ellipse>
        <path d="M0.424324724,18.7679816 C6.52534464,7.58723847 18.3743741,0.00371917421 31.9917031,0.00371917421 C50.8124899,0.00371917421 65.705028,12.3764256 67.2054232,30.6045201 C61.1652468,28.6394491 53.0116556,29.6257397 48.0312832,29.1909876 C31.9242819,27.7849577 15.9492765,23.3653479 0.424324724,18.7679816 Z" id="path-3"></path>
    </defs>
    <g id="HIgh-Fidelity---Desktop" stroke="none" stroke-width="1" fill="none" fill-rule="evenodd">
        <g id="Landing" transform="translate(-627.000000, -345.000000)">
            <g id="Group-2" transform="translate(611.000000, 308.000000)">
                <g id="Purrl-Copy" transform="translate(107.569613, 107.879588) rotate(-19.000000) translate(-107.569613, -107.879588) translate(23.069613, 22.879588)">
                    <path d="M67.2431769,150.550847 C91.2737834,150.550847 110.754439,130.696879 110.754439,106.205769 C110.754439,81.7146579 89.7733951,63.3898305 65.7427886,63.3898305 C41.7121821,63.3898305 23.7319149,81.7146579 23.7319149,106.205769 C23.7319149,130.696879 43.2125705,150.550847 67.2431769,150.550847 Z" id="Ball-background" stroke="#45C4BD" stroke-width="4.896" fill="#FFFFFF"></path>
                    <g id="Main-ball" transform="translate(30.923404, 65.550847)">
                        <mask id="mask-2" fill="white">
                            <use xlink:href="#path-1"></use>
                        </mask>
                        <use id="Mask" fill="#FFFFFF" xlink:href="#path-1"></use>
                        <path d="M113.644701,9.9683839 C113.644701,-31.2788622 80.262442,-64.7163619 39.083339,-64.7163619 C-2.09576402,-64.7163619 -35.4780227,-31.2788622 -35.4780227,9.9683839" id="Oval-3-Copy-3" stroke="#45C4BD" stroke-width="5.76" mask="url(#mask-2)" transform="translate(39.083339, -27.373989) rotate(309.000000) translate(-39.083339, 27.373989) "></path>
                        <path d="M132.285041,-8.70280254 C132.285041,-49.9500487 98.9027824,-83.3875483 57.7236794,-83.3875483 C16.5445764,-83.3875483 -16.8376823,-49.9500487 -16.8376823,-8.70280254" id="Oval-3-Copy-6" stroke="#45C4BD" stroke-width="5.76" mask="url(#mask-2)" transform="translate(57.723679, -46.045175) rotate(309.000000) translate(-57.723679, 46.045175) "></path>
                        <path d="M160.245552,-11.8146669 C160.245552,-53.0619131 126.863293,-86.4994127 85.68419,-86.4994127 C44.505087,-86.4994127 11.1228283,-53.0619131 11.1228283,-11.8146669" id="Oval-3-Copy-7" stroke="#45C4BD" stroke-width="5.76" mask="url(#mask-2)" transform="translate(85.684190, -49.157040) rotate(309.000000) translate(-85.684190, 49.157040) "></path>
                        <ellipse id="Oval-3-Copy-5" stroke="#45C4BD" stroke-width="5.76" mask="url(#mask-2)" cx="70.3697806" cy="94.9118644" rx="48.1542128" ry="48.2338983"></ellipse>
                        <ellipse id="Oval-3-Copy-3" stroke="#45C4BD" stroke-width="5.76" mask="url(#mask-2)" cx="61.0496103" cy="79.3525424" rx="48.1542128" ry="48.2338983"></ellipse>
                    </g>
                    <path d="M16.1863539,85 C5.05272747,78.0450917 -0.337281301,70.2223465 0.0163275903,61.5317646 C0.546740927,48.4958916 12.4756286,32.8528441 12.4756286,32.3314092 C12.4756286,31.9347848 14.4580546,20.7827792 20.1720344,10.9525775 C22.2936878,7.30253312 26.7233238,0.121991482 30.2498878,0.00244427017 C33.7764519,-0.117102942 36.0844345,4.17392361 37.1452612,7.30253312 C37.852479,9.38827279 38.9133057,13.0383172 40.3277412,18.2526664 C59.0690125,14.7764336 71.6221281,17.3836082 77.9870882,26.0741902 C80.6391548,14.602622 85.9432882,13.5597521 86.4737016,13.5597521 C87.0041149,13.5597521 95.4907283,17.6387833 92.8386616,40.3674263 C99.954075,51.2225021 105.497145,64.6221411 100.061876,72.6508341 C99.0398966,74.1604475 97.8097581,75.2754237 96.3714603,75.9957627 C95.8719713,76.341004 95.6403382,76.4695481 95.676561,76.3813949 C95.7330374,76.2439516 94.4770278,76.687616 94.2140135,76.7161017 C93.8699788,76.7533622 74.8470614,78.1229472 37.1452612,80.8248565 C36.0844345,80.8248565 35.5540212,82.041538 35.5540212,84.4749009 C35.5540212,88.1249454 66.3179947,92.8178596 70.0308881,96.989339 C72.5061503,99.7703252 70.384497,102.203688 63.6659281,104.289428 C47.0463102,108.113284 35.0236078,108.113284 27.5978211,104.289428 C34.669999,108.80853 38.2060879,114.370503 38.2060879,120.975345 C29.7194745,122.713462 25.8297767,129.318304 26.5369944,140.789872 C24.9457544,127.753999 32.3715412,120.975345 40.3277412,120.975345 C48.2839413,120.975345 59.4226214,128.796869 59.4226214,137.139828 C59.4226214,145.482786 58.892208,116.282431 66.8484081,116.282431 C74.8046081,116.282431 76.3958481,138.704132 74.8046081,145.482786 C73.2133681,152.26144 68.9700614,163.211574 61.5442747,154.868615 C57.8313813,165.297313 95.4907283,159.040094 89.1257682,126.189694 C82.7608082,93.3392946 103.977342,97.5107739 108.220648,107.418037 C112.463955,117.325301 113.524782,131.925478 110.342302,140.789872 C107.159822,149.654266 94.4299016,176.768881 50.4055946,168.425923 C6.38128764,160.082964 7.97252765,135.054088 7.44211431,117.846736 C7.08850542,106.375167 10.0032519,95.4262556 16.1863539,85 Z" id="Path-2" stroke="#FD8685" stroke-width="4.62240005" fill="#FFFFFF" stroke-linecap="round" stroke-linejoin="round"></path>
                    <path d="" id="Path-3" stroke="#979797" stroke-width="2.88"></path>
                    <g id="Face" transform="translate(52.604327, 50.291508) rotate(7.000000) translate(-52.604327, -50.291508) translate(23.478795, 38.766085)">
                        <g id="Mouth" transform="translate(14.382979, 17.288136)" stroke="#FD8685" stroke-width="4.32" stroke-linecap="round" stroke-linejoin="round">
                            <path d="M0,5.76271186 C0.710274814,2.46939281 3.66023707,0 7.19148936,0 C10.7227416,0 13.6727039,2.46939281 14.3829787,5.76271186" id="Combined-Shape-Copy-2" transform="translate(7.191489, 2.881356) rotate(-180.000000) translate(-7.191489, -2.881356) "></path>
                            <path d="M14.3829787,5.76271186 C15.0932535,2.46939281 18.0432158,0 21.5744681,0 C25.1057204,0 28.0556826,2.46939281 28.7659574,5.76271186" id="Combined-Shape-Copy-3" transform="translate(21.574468, 2.881356) rotate(-180.000000) translate(-21.574468, -2.881356) "></path>
                        </g>
                        <g id="Eyes" stroke="#45C4BD" stroke-width="4.32" stroke-linecap="round" stroke-linejoin="round">
                            <path d="M0,6.44404058 C0.863728858,2.76135053 4.45102702,0 8.74520224,0 C13.0393775,0 16.6266756,2.76135053 17.4904045,6.44404058" id="Combined-Shape"></path>
                            <path d="M40.2723404,6.44404058 C41.1360693,2.76135053 44.7233674,0 49.0175427,0 C53.3117179,0 56.8990161,2.76135053 57.7627449,6.44404058" id="Combined-Shape-Copy"></path>
                        </g>
                        <ellipse id="Nose" fill="#FD8685" cx="28.7659574" cy="14.7669492" rx="5.75319149" ry="3.24152542"></ellipse>
                    </g>
                    <g id="Oval-3-Copy-11-+-Oval-3-Copy-10-Mask" transform="translate(40.991489, 64.830508)">
                        <mask id="mask-4" fill="white">
                            <use xlink:href="#path-3"></use>
                        </mask>
                        <use id="Mask" stroke="#45C4BD" stroke-width="3.6" fill="#FFFFFF" stroke-linecap="round" xlink:href="#path-3"></use>
                        <path d="M123.693617,-8.87457627 C123.693617,-50.1218224 90.3113583,-83.559322 49.1322553,-83.559322 C7.95315233,-83.559322 -25.4291064,-50.1218224 -25.4291064,-8.87457627" id="Oval-3-Copy-11" stroke="#45C4BD" stroke-width="5.76" mask="url(#mask-4)" transform="translate(49.132255, -46.216949) rotate(309.000000) translate(-49.132255, 46.216949) "></path>
                        <path d="M151.021277,-12.4762712 C151.021277,-53.7235173 117.639018,-87.1610169 76.4599149,-87.1610169 C35.2808119,-87.1610169 1.89855319,-53.7235173 1.89855319,-12.4762712" id="Oval-3-Copy-10" stroke="#45C4BD" stroke-width="5.76" mask="url(#mask-4)" transform="translate(76.459915, -49.818644) rotate(309.000000) translate(-76.459915, 49.818644) "></path>
                    </g>
                    <path d="M105.359147,77.799424 C106.718319,79.2945026 107.397906,80.0420418 107.397906,80.0420418 C107.397906,80.0420418 106.952885,80.0420418 106.062845,80.0420418 C103.501111,81.9584906 100.63205,83.5203073 98.377643,85.791388 C87.8351805,96.4118228 111.161789,98.5136225 111.947717,91.2364895 C112.733644,83.9593565 103.994941,76.1930821 101.924227,73.4745763" id="Path-9" stroke="#FD8685" stroke-width="4.6224" fill="#FFFFFF" stroke-linecap="round" stroke-linejoin="round"></path>
                </g>
                <path d="M140.330078,117.765625 C164.626953,123.075521 176.31901,129.445964 175.40625,136.876953 C174.645385,143.071328 162.592837,154.470197 163.544922,163.720703 C164.306068,171.116045 169.760774,178.604641 178.881836,179.837891 C188.002898,181.07114 194.624391,172.620401 199.990234,168.648437 C204.160509,165.561471 210.995172,166.767647 217.140625,168.648438" id="Path-8" stroke="#45C4BD" stroke-width="5" stroke-linecap="round" stroke-linejoin="round"></path>
            </g>
        </g>
    </g>
</svg>